<?xml version="1.0" encoding="utf-8"?>
<!-- Generator: Adobe Illustrator 15.1.0, SVG Export Plug-In . SVG Version: 6.00 Build 0)  -->
<!DOCTYPE svg PUBLIC "-//W3C//DTD SVG 1.1//EN" "http://www.w3.org/Graphics/SVG/1.1/DTD/svg11.dtd">
<svg version="1.1" id="Layer_1" xmlns="http://www.w3.org/2000/svg" xmlns:xlink="http://www.w3.org/1999/xlink" x="0px" y="0px"
	 width="14px" height="14px" viewBox="0 0 14 14" enable-background="new 0 0 14 14" xml:space="preserve">
<path opacity="0.45" d="M7,0C3.134,0,0,3.135,0,7c0,3.867,3.134,7,7,7c3.868,0,7-3.133,7-7C14,3.135,10.867,0,7,0z M7,12.25
	c-2.894,0-5.25-2.354-5.25-5.25c0-2.894,2.356-5.25,5.25-5.25c2.896,0,5.25,2.356,5.25,5.25C12.25,9.896,9.896,12.25,7,12.25z
	 M9.595,7.646L8.159,6.927C8.135,6.529,7.911,6.186,7.584,5.996V3.499c0-0.321-0.262-0.583-0.584-0.583
	c-0.323,0-0.583,0.262-0.583,0.583v2.497C6.07,6.198,5.833,6.57,5.833,7c0,0.645,0.522,1.167,1.166,1.167
	c0.239,0,0.458-0.071,0.643-0.193l1.43,0.715C9.156,8.73,9.245,8.751,9.333,8.751c0.214,0,0.42-0.119,0.522-0.323
	C9.999,8.14,9.883,7.789,9.595,7.646z"/>
</svg>
