<?xml version="1.0" encoding="utf-8"?>
<!-- Generator: Adobe Illustrator 15.1.0, SVG Export Plug-In . SVG Version: 6.00 Build 0)  -->
<!DOCTYPE svg PUBLIC "-//W3C//DTD SVG 1.1//EN" "http://www.w3.org/Graphics/SVG/1.1/DTD/svg11.dtd">
<svg version="1.1" id="Layer_1" xmlns="http://www.w3.org/2000/svg" xmlns:xlink="http://www.w3.org/1999/xlink" x="0px" y="0px"
	 width="11px" height="12px" viewBox="0 0 11 12" enable-background="new 0 0 11 12" xml:space="preserve">
<path opacity="0.45" d="M10,1H9V0.5C9,0.225,8.775,0,8.5,0S8,0.225,8,0.5V1H3V0.5C3,0.225,2.775,0,2.5,0S2,0.225,2,0.5V1H1
	C0.45,1,0,1.45,0,2v1h11V2C11,1.45,10.55,1,10,1z M0,11c0,0.55,0.45,1,1,1h9c0.55,0,1-0.45,1-1V4H0V11z M9,6h1v1H9V6z M9,8h1v1H9V8z
	 M9,10h1v1H9V10z M7,6h1v1H7V6z M7,8h1v1H7V8z M7,10h1v1H7V10z M5,6h1v1H5V6z M5,8h1v1H5V8z M5,10h1v1H5V10z M3,6h1v1H3V6z M3,8h1v1
	H3V8z M3,10h1v1H3V10z M1,8h1v1H1V8z M1,10h1v1H1V10z"/>
</svg>
