<?xml version="1.0" encoding="utf-8"?>
<!-- Generator: Adobe Illustrator 15.1.0, SVG Export Plug-In . SVG Version: 6.00 Build 0)  -->
<!DOCTYPE svg PUBLIC "-//W3C//DTD SVG 1.1//EN" "http://www.w3.org/Graphics/SVG/1.1/DTD/svg11.dtd">
<svg version="1.1" id="Layer_1" xmlns="http://www.w3.org/2000/svg" xmlns:xlink="http://www.w3.org/1999/xlink" x="0px" y="0px"
	 width="12px" height="12px" viewBox="0 0 12 12" enable-background="new 0 0 12 12" xml:space="preserve">
<path opacity="0.5" d="M11.635,9.866l-2.75-2.75c-0.004-0.004-0.01-0.006-0.014-0.01C9.27,6.411,9.5,5.608,9.5,4.75
	C9.5,2.126,7.373,0,4.75,0C2.127,0,0,2.126,0,4.75c0,2.624,2.127,4.75,4.75,4.75c0.858,0,1.661-0.231,2.355-0.629
	c0.004,0.004,0.006,0.009,0.01,0.013l2.752,2.749C10.111,11.878,10.43,12,10.75,12s0.641-0.122,0.885-0.366
	C12.123,11.146,12.123,10.354,11.635,9.866z M1.5,4.75c0-1.792,1.458-3.25,3.25-3.25C6.542,1.5,8,2.958,8,4.75
	c0,1.792-1.458,3.25-3.25,3.25C2.958,8.001,1.5,6.542,1.5,4.75z"/>
</svg>
