<?xml version="1.0" encoding="utf-8"?>
<!-- Generator: Adobe Illustrator 15.1.0, SVG Export Plug-In . SVG Version: 6.00 Build 0)  -->
<!DOCTYPE svg PUBLIC "-//W3C//DTD SVG 1.1//EN" "http://www.w3.org/Graphics/SVG/1.1/DTD/svg11.dtd">
<svg version="1.1" id="Layer_1" xmlns="http://www.w3.org/2000/svg" xmlns:xlink="http://www.w3.org/1999/xlink" x="0px" y="0px"
	 width="36px" height="26px" viewBox="0 0 36 26" enable-background="new 0 0 36 26" xml:space="preserve">
<rect opacity="0" fill-rule="evenodd" clip-rule="evenodd" fill="#9CCB3B" width="36" height="25.999"/>
<g>
	<path fill-rule="evenodd" clip-rule="evenodd" fill="#FFFFFF" d="M11.531,13.309c-0.05,0.051-0.05,0-0.05,0.102
		c0,0.16,0.108,0.16,0.21,0.16c0.567,0.204,1.134,0.357,1.643,0.619c0.415,0.152,1.083,0.668,1.237,0.668
		c0.101,0,0.101,0,0.159-0.051v-0.211c-1.032-0.872-2.116-0.974-3.089-1.287H11.531z M17.406,14.857
		c0.975-0.777,1.956-0.981,2.93-1.345c0.051,0,0.108-0.051,0.108-0.102c-0.058-0.051-0.058-0.102-0.058-0.102h-0.204
		c-0.618,0.204-3.039,0.67-3.039,1.388c0,0.109,0.051,0.109,0.051,0.16H17.406z M28.318,14.029c-0.669,0.051-0.466,0.668-0.618,0.98
		l-0.102-0.102c0.051-0.211,0.051-0.414,0.051-0.566c-0.516,0.051-0.362,0.617-0.516,0.923c-0.051-0.203-0.051-0.458-0.051-0.669
		c-0.517,0.051-0.364,0.618-0.517,0.931c-0.051-0.211-0.051-0.465-0.051-0.669c-0.517,0-0.356,0.458-0.466,0.72
		c-0.203-0.102-0.153-0.466-0.051-0.516c-0.507,0.05-0.355,0.465-0.507,0.771c-0.211-0.153-0.06-0.407-0.06-0.517
		c-0.51,0-0.356,0.517-0.51,0.778l-0.108-0.109c0-0.152,0.059-0.306,0.059-0.407c-0.517,0.102-0.313,0.407-0.517,0.771
		c-0.16-0.255-0.052-0.415-0.052-0.517c-0.516-0.051-0.413,0.567-0.516,0.829c-0.262-0.262-0.051-0.415-0.051-0.567
		c-0.516-0.052-0.415,0.567-0.516,0.821c-0.256-0.203-0.051-0.465-0.051-0.566c-0.516-0.052-0.416,0.566-0.516,0.821
		c-0.153-0.204-0.052-0.458-0.052-0.567c-0.517-0.051-0.415,0.567-0.517,0.829c-0.152-0.211-0.051-0.466-0.051-0.567
		c-0.566-0.051-0.363,0.517-0.516,0.872c-0.153-0.203-0.051-0.406-0.051-0.617c-0.103,0.051-0.204,0.102-0.307,0.102
		c-0.159,0-0.262-0.306-0.414-0.306c-0.102,0-0.152,0.103-0.203,0.153c0.102,0.102,0.203,0.211,0.255,0.312
		c-0.466,0.203-1.338,0.617-1.44,0.617c-0.15,0-0.619-0.312-0.88-0.465c0.211-0.102,0.466-0.203,0.676-0.254
		c4.166-1.295,6.64-4.588,6.64-7.881C25.797,3.785,20.132,1,15.959,1c-3.81,0-8.958,2.014-9.83,7.576c0,1.542,0.051,1.644,0,1.745
		C5.511,9.914,5.358,9.754,4.843,9.754c-0.873,0-1.651,0.88-2.677,0.88c-0.617,0-1.548-0.364-2.166-0.88v0.211
		c0,0.305,0.567,1.592,0.669,1.701c0.16,0.204,0.829,0.355,1.033,0.355c1.649,0,2.057-1.337,3.395-1.337
		c0.363,0,0.982,0.154,1.287,0.72H6.129c-1.186,0-1.389,0.879-2.625,0.879c-0.152,0-0.363,0-0.516-0.058
		c0.102,0.211,0.516,0.83,0.771,0.83c0.931,0,1.548-1.499,2.675-1.389c0.11,0.152,0.161,0.305,0.211,0.509
		c0.823,2.522,4.377,4.842,6.486,5.206c0.102,0,0.204,0.102,0.255,0.152l-1.957,1.134c0.102,0.102,0.262,0.255,0.313,0.356
		c-1.083,0.728-1.134,1.752-1.186,2.523v0.108c-0.152,0.152-1.135,0.255-1.135,0.771c0,0.204,0.153,0.466,0.415,0.466
		c0.103,0,0.772-0.363,0.924-0.363c0.101,0,0.879,0.72,0.879,0.872c0,0.109-0.211,0.516-0.312,0.676
		c-0.669,0.051-1.338,0.103-2.007,0.509C9.583,24.948,10.709,25,10.811,25l1.498-0.131l1.595-0.139
		c0.226-0.02,0.597-0.036,0.824-0.036h2.419c0.226,0,0.598,0.017,0.823,0.036l1.782,0.155L21.063,25c0.101,0,1.229-0.052,1.49-0.415
		c-0.67-0.406-1.338-0.458-2.007-0.509c-0.103-0.211-0.313-0.566-0.313-0.676c0-0.203,0.517-0.152,0.931-1.178
		c0.103-0.262,0.153-0.728,0.153-0.829c0-0.923-0.312-1.541-1.186-2.421c0.102-0.102,0.255-0.255,0.312-0.356
		c-0.058,0-0.108-0.051-0.159-0.102c0.262-0.16,0.668-0.363,0.828-0.363c0.103,0,0.103,0.051,0.103,0.051v0.312
		c0.102-0.059,0.203-0.059,0.255-0.059c0-0.203,0-0.356,0.051-0.509c1.548-0.668,3.09-1.396,4.58-2.064
		c0.312-0.152,0.728-0.306,1.032-0.458c0.516-0.211,1.083-0.466,1.548-0.728C28.521,14.443,28.422,14.189,28.318,14.029z
		 M7.932,13.258c1.694-0.923,3.657-0.975,5.504-1.083h4.944c1.905,0.16,3.708,0.16,5.613,1.032c-2.37,1.65-5.512,2.42-8.034,2.42
		C13.436,15.628,10.303,14.908,7.932,13.258z M12.562,23.916v-0.254c0.313,0,0.568-0.152,0.931-0.203
		c0.975-0.211,1.287-2.473,2.414-2.473c0.778,0,1.134,0.872,1.498,1.593c0.204,0.414,0.72,0.821,1.133,0.931
		c0.204,0.102,0.51,0.152,0.771,0.152c0,0.051,0.051,0.152,0.051,0.254H12.562z"/>
</g>
</svg>
