<?xml version="1.0" encoding="utf-8"?>
<!-- Generator: Adobe Illustrator 15.1.0, SVG Export Plug-In . SVG Version: 6.00 Build 0)  -->
<!DOCTYPE svg PUBLIC "-//W3C//DTD SVG 1.1//EN" "http://www.w3.org/Graphics/SVG/1.1/DTD/svg11.dtd">
<svg version="1.1" id="Layer_1" xmlns="http://www.w3.org/2000/svg" xmlns:xlink="http://www.w3.org/1999/xlink" x="0px" y="0px"
	 width="32px" height="26px" viewBox="0 0 32 26" enable-background="new 0 0 32 26" xml:space="preserve">
<g>
	<path fill-rule="evenodd" clip-rule="evenodd" fill="#FFFFFF" d="M13.19,13.309c-0.051,0.051-0.051,0-0.051,0.102
		c0,0.16,0.108,0.16,0.21,0.16c0.567,0.204,1.134,0.357,1.644,0.619c0.415,0.152,1.083,0.668,1.237,0.668
		c0.101,0,0.101,0,0.159-0.051v-0.211c-1.032-0.872-2.116-0.974-3.089-1.287H13.19z M19.064,14.857
		c0.975-0.777,1.956-0.981,2.93-1.345c0.052,0,0.109-0.051,0.109-0.102c-0.058-0.051-0.058-0.102-0.058-0.102h-0.204
		c-0.618,0.204-3.039,0.67-3.039,1.388c0,0.109,0.051,0.109,0.051,0.16H19.064z M29.977,14.029c-0.669,0.051-0.465,0.668-0.617,0.98
		l-0.102-0.102c0.05-0.211,0.05-0.414,0.05-0.566c-0.516,0.051-0.362,0.617-0.516,0.923c-0.05-0.203-0.05-0.458-0.05-0.669
		c-0.517,0.051-0.364,0.618-0.517,0.931c-0.051-0.211-0.051-0.465-0.051-0.669c-0.517,0-0.356,0.458-0.466,0.72
		c-0.203-0.102-0.153-0.466-0.051-0.516c-0.508,0.05-0.355,0.465-0.508,0.771c-0.211-0.153-0.059-0.407-0.059-0.517
		c-0.51,0-0.356,0.517-0.51,0.778l-0.108-0.109c0-0.152,0.058-0.306,0.058-0.407c-0.517,0.102-0.312,0.407-0.517,0.771
		c-0.159-0.255-0.051-0.415-0.051-0.517c-0.516-0.051-0.413,0.567-0.516,0.829c-0.262-0.262-0.051-0.415-0.051-0.567
		c-0.516-0.052-0.415,0.567-0.516,0.821c-0.256-0.203-0.052-0.465-0.052-0.566c-0.516-0.052-0.415,0.566-0.516,0.821
		c-0.152-0.204-0.051-0.458-0.051-0.567c-0.517-0.051-0.415,0.567-0.517,0.829c-0.152-0.211-0.052-0.466-0.052-0.567
		c-0.565-0.051-0.362,0.517-0.516,0.872c-0.153-0.203-0.05-0.406-0.05-0.617c-0.104,0.051-0.204,0.102-0.307,0.102
		c-0.16,0-0.262-0.306-0.414-0.306c-0.102,0-0.152,0.103-0.204,0.153c0.103,0.102,0.204,0.211,0.256,0.312
		c-0.467,0.203-1.338,0.617-1.44,0.617c-0.151,0-0.619-0.312-0.88-0.465c0.211-0.102,0.466-0.203,0.676-0.254
		c4.166-1.295,6.639-4.588,6.639-7.881C27.455,3.785,21.791,1,17.618,1c-3.811,0-8.958,2.014-9.83,7.576
		c0,1.542,0.051,1.644,0,1.745C7.169,9.914,7.017,9.754,6.501,9.754c-0.873,0-1.65,0.88-2.676,0.88c-0.618,0-1.549-0.364-2.166-0.88
		v0.211c0,0.305,0.567,1.592,0.668,1.701c0.16,0.204,0.83,0.355,1.033,0.355c1.65,0,2.057-1.337,3.395-1.337
		c0.363,0,0.981,0.154,1.286,0.72H7.788c-1.186,0-1.389,0.879-2.625,0.879c-0.152,0-0.363,0-0.516-0.058
		c0.102,0.211,0.516,0.83,0.771,0.83c0.93,0,1.548-1.499,2.675-1.389c0.11,0.152,0.16,0.305,0.211,0.509
		c0.823,2.522,4.377,4.842,6.486,5.206c0.102,0,0.204,0.102,0.255,0.152l-1.956,1.134c0.102,0.102,0.261,0.255,0.313,0.356
		c-1.084,0.728-1.134,1.752-1.186,2.523v0.108c-0.152,0.152-1.135,0.255-1.135,0.771c0,0.204,0.153,0.466,0.415,0.466
		c0.103,0,0.771-0.363,0.924-0.363c0.101,0,0.88,0.72,0.88,0.872c0,0.109-0.211,0.516-0.313,0.676
		c-0.669,0.051-1.337,0.103-2.006,0.509C11.241,24.948,12.368,25,12.47,25l1.499-0.131l1.595-0.139
		c0.226-0.02,0.597-0.036,0.824-0.036h2.419c0.226,0,0.598,0.017,0.822,0.036l1.781,0.155L22.722,25
		c0.102,0,1.229-0.052,1.491-0.415c-0.671-0.406-1.339-0.458-2.008-0.509c-0.102-0.211-0.312-0.566-0.312-0.676
		c0-0.203,0.517-0.152,0.931-1.178c0.103-0.262,0.153-0.728,0.153-0.829c0-0.923-0.313-1.541-1.186-2.421
		c0.102-0.102,0.255-0.255,0.312-0.356c-0.058,0-0.109-0.051-0.159-0.102c0.261-0.16,0.668-0.363,0.828-0.363
		c0.102,0,0.102,0.051,0.102,0.051v0.312c0.103-0.059,0.204-0.059,0.256-0.059c0-0.203,0-0.356,0.05-0.509
		c1.549-0.668,3.091-1.396,4.58-2.064c0.313-0.152,0.728-0.306,1.032-0.458c0.516-0.211,1.084-0.466,1.549-0.728
		C30.181,14.443,30.08,14.189,29.977,14.029z M9.591,13.258c1.694-0.923,3.657-0.975,5.504-1.083h4.944
		c1.905,0.16,3.708,0.16,5.612,1.032c-2.369,1.65-5.511,2.42-8.033,2.42C15.095,15.628,11.961,14.908,9.591,13.258z M14.222,23.916
		v-0.254c0.313,0,0.568-0.152,0.931-0.203c0.974-0.211,1.287-2.473,2.414-2.473c0.778,0,1.135,0.872,1.498,1.593
		c0.204,0.414,0.721,0.821,1.134,0.931c0.203,0.102,0.51,0.152,0.771,0.152c0,0.051,0.051,0.152,0.051,0.254H14.222z"/>
</g>
</svg>
